<svg width="512" height="512" viewBox="0 0 512 512" fill="none" xmlns="http://www.w3.org/2000/svg">
<rect width="512" height="512" rx="131" fill="#FFAA00"/>
<path d="M173.644 161.356L338.356 161.356L420.711 304L338.356 446.644L173.644 446.644L91.2886 304L173.644 161.356Z" fill="#F0F0F0"/>
<path d="M243.191 281.622L269.335 281.622L282.408 304.263L269.335 326.905L243.191 326.905L230.118 304.263L243.191 281.622Z" fill="#FFAA00"/>
<path d="M251.262 295.674L261.066 295.674L265.969 304.165L261.066 312.656L251.262 312.656L246.36 304.165L251.262 295.674Z" fill="white"/>
<g filter="url(#filter0_b_0_1)">
<path d="M182.963 303.079L132.909 331.978L146.058 354.752L137.736 359.556L118.048 325.457L176.424 291.753L182.963 303.079ZM215.093 358.731C216.562 361.275 217.695 363.832 218.494 366.402C219.319 368.956 219.675 371.385 219.561 373.688C219.463 376.018 218.843 378.162 217.7 380.121C216.573 382.107 214.805 383.795 212.397 385.186C210.719 386.154 209.115 386.846 207.586 387.259C206.072 387.7 204.6 387.901 203.17 387.86C201.782 387.832 200.438 387.597 199.138 387.157C197.837 386.717 196.575 386.093 195.35 385.285L194.944 385.519C195.381 386.963 195.572 388.513 195.517 390.168C195.478 391.85 195.144 393.522 194.516 395.184C193.888 396.846 192.947 398.435 191.694 399.953C190.484 401.481 188.918 402.8 186.997 403.91C183.749 405.785 180.684 406.851 177.801 407.108C174.946 407.349 172.275 406.943 169.79 405.888C167.347 404.844 165.066 403.238 162.948 401.069C160.857 398.885 158.952 396.304 157.233 393.327L144.155 370.675L202.531 336.972L215.093 358.731ZM189.994 368.133C191.166 370.163 192.302 371.817 193.4 373.095C194.499 374.373 195.604 375.287 196.715 375.836C197.842 376.413 199.004 376.644 200.201 376.53C201.398 376.416 202.673 375.969 204.026 375.188C205.407 374.391 206.445 373.502 207.143 372.522C207.84 371.543 208.22 370.421 208.285 369.157C208.364 367.92 208.125 366.506 207.568 364.916C207.01 363.325 206.146 361.515 204.974 359.485L201.036 352.665L186.057 361.313L189.994 368.133ZM163.274 385.509C165.743 389.785 168.36 392.568 171.126 393.858C173.907 395.175 177.056 394.818 180.575 392.787C184.093 390.756 185.977 388.206 186.227 385.139C186.492 382.099 185.391 378.441 182.922 374.165L178.141 365.884L158.493 377.228L163.274 385.509Z" fill="#FFAA00"/>
<path d="M182.963 303.079L183.463 303.945L184.329 303.445L183.829 302.579L182.963 303.079ZM132.909 331.978L132.409 331.112L131.543 331.612L132.043 332.478L132.909 331.978ZM146.058 354.752L146.558 355.618L147.424 355.118L146.924 354.252L146.058 354.752ZM137.736 359.556L136.87 360.056L137.37 360.922L138.236 360.422L137.736 359.556ZM118.048 325.457L117.548 324.591L116.682 325.091L117.182 325.957L118.048 325.457ZM176.424 291.753L177.29 291.253L176.79 290.387L175.924 290.887L176.424 291.753ZM182.463 302.213L132.409 331.112L133.409 332.844L183.463 303.945L182.463 302.213ZM132.043 332.478L145.192 355.252L146.924 354.252L133.775 331.478L132.043 332.478ZM145.558 353.886L137.236 358.69L138.236 360.422L146.558 355.618L145.558 353.886ZM138.602 359.056L118.914 324.957L117.182 325.957L136.87 360.056L138.602 359.056ZM118.548 326.323L176.924 292.62L175.924 290.887L117.548 324.591L118.548 326.323ZM175.558 292.253L182.097 303.579L183.829 302.579L177.29 291.253L175.558 292.253ZM218.494 366.402L217.539 366.698L217.542 366.709L218.494 366.402ZM219.561 373.688L218.562 373.639L218.562 373.646L219.561 373.688ZM217.7 380.121L216.836 379.617L216.83 379.627L217.7 380.121ZM207.586 387.259L207.325 386.294L207.316 386.297L207.306 386.299L207.586 387.259ZM203.17 387.86L203.198 386.861L203.191 386.861L203.17 387.86ZM195.35 385.285L195.901 384.45L195.385 384.11L194.85 384.419L195.35 385.285ZM194.944 385.519L194.444 384.653L193.757 385.05L193.987 385.809L194.944 385.519ZM195.517 390.168L194.518 390.135L194.517 390.145L195.517 390.168ZM191.694 399.953L190.923 399.316L190.917 399.324L190.91 399.332L191.694 399.953ZM177.801 407.108L177.885 408.104L177.89 408.104L177.801 407.108ZM169.79 405.888L169.397 406.807L169.399 406.808L169.79 405.888ZM162.948 401.069L162.226 401.761L162.233 401.768L162.948 401.069ZM144.155 370.675L143.655 369.809L142.789 370.309L143.289 371.175L144.155 370.675ZM202.531 336.972L203.397 336.472L202.897 335.606L202.031 336.106L202.531 336.972ZM196.715 375.836L197.171 374.946L197.158 374.94L196.715 375.836ZM208.285 369.157L207.287 369.092L207.286 369.106L208.285 369.157ZM201.036 352.665L201.902 352.165L201.402 351.299L200.536 351.799L201.036 352.665ZM186.057 361.313L185.557 360.447L184.691 360.947L185.191 361.813L186.057 361.313ZM171.126 393.858L171.554 392.954L171.548 392.952L171.126 393.858ZM186.227 385.139L185.231 385.052L185.23 385.058L186.227 385.139ZM178.141 365.884L179.007 365.384L178.507 364.518L177.641 365.018L178.141 365.884ZM158.493 377.228L157.993 376.362L157.127 376.862L157.627 377.728L158.493 377.228ZM214.227 359.231C215.662 361.716 216.764 364.205 217.539 366.698L219.449 366.105C218.626 363.458 217.462 360.833 215.959 358.231L214.227 359.231ZM217.542 366.709C218.336 369.167 218.669 371.475 218.562 373.639L220.56 373.737C220.68 371.296 220.302 368.745 219.445 366.094L217.542 366.709ZM218.562 373.646C218.47 375.818 217.894 377.803 216.836 379.617L218.564 380.625C219.791 378.522 220.455 376.218 220.56 373.73L218.562 373.646ZM216.83 379.627C215.809 381.428 214.185 382.999 211.897 384.32L212.897 386.052C215.426 384.591 217.338 382.786 218.57 380.615L216.83 379.627ZM211.897 384.32C210.278 385.254 208.754 385.907 207.325 386.294L207.847 388.225C209.476 387.784 211.16 387.054 212.897 386.052L211.897 384.32ZM207.306 386.299C205.883 386.714 204.514 386.898 203.198 386.861L203.142 388.86C204.686 388.903 206.262 388.687 207.866 388.219L207.306 386.299ZM203.191 386.861C201.904 386.834 200.661 386.617 199.458 386.21L198.817 388.105C200.215 388.578 201.661 388.829 203.149 388.86L203.191 386.861ZM199.458 386.21C198.244 385.8 197.059 385.215 195.901 384.45L194.799 386.119C196.09 386.972 197.43 387.635 198.817 388.105L199.458 386.21ZM194.85 384.419L194.444 384.653L195.444 386.385L195.85 386.151L194.85 384.419ZM193.987 385.809C194.389 387.138 194.569 388.578 194.518 390.135L196.517 390.201C196.574 388.447 196.372 386.788 195.901 385.23L193.987 385.809ZM194.517 390.145C194.481 391.708 194.171 393.269 193.581 394.831L195.452 395.538C196.118 393.776 196.475 391.993 196.517 390.191L194.517 390.145ZM193.581 394.831C192.995 396.379 192.114 397.874 190.923 399.316L192.465 400.589C193.781 398.997 194.78 397.313 195.452 395.538L193.581 394.831ZM190.91 399.332C189.788 400.749 188.324 401.989 186.497 403.044L187.497 404.776C189.512 403.612 191.18 402.214 192.478 400.573L190.91 399.332ZM186.497 403.044C183.339 404.867 180.414 405.871 177.712 406.112L177.89 408.104C180.954 407.831 184.159 406.703 187.497 404.776L186.497 403.044ZM177.717 406.111C175.013 406.34 172.507 405.955 170.18 404.967L169.399 406.808C172.043 407.931 174.878 408.359 177.885 408.104L177.717 406.111ZM170.182 404.968C167.877 403.983 165.703 402.458 163.664 400.37L162.233 401.768C164.43 404.018 166.817 405.705 169.397 406.807L170.182 404.968ZM163.67 400.378C161.642 398.258 159.783 395.744 158.099 392.827L156.367 393.827C158.121 396.864 160.072 399.511 162.226 401.761L163.67 400.378ZM158.099 392.827L145.021 370.175L143.289 371.175L156.367 393.827L158.099 392.827ZM144.655 371.541L203.031 337.838L202.031 336.106L143.655 369.809L144.655 371.541ZM201.665 337.472L214.227 359.231L215.959 358.231L203.397 336.472L201.665 337.472ZM189.128 368.633C190.32 370.698 191.49 372.408 192.642 373.747L194.159 372.443C193.113 371.227 192.012 369.628 190.86 367.633L189.128 368.633ZM192.642 373.747C193.799 375.093 195.005 376.107 196.272 376.733L197.158 374.94C196.203 374.467 195.199 373.654 194.159 372.443L192.642 373.747ZM196.26 376.727C197.546 377.385 198.898 377.659 200.295 377.526L200.106 375.535C199.109 375.63 198.137 375.441 197.17 374.946L196.26 376.727ZM200.295 377.526C201.671 377.395 203.085 376.886 204.526 376.054L203.526 374.322C202.262 375.052 201.125 375.438 200.106 375.535L200.295 377.526ZM204.526 376.054C205.992 375.207 207.155 374.23 207.957 373.102L206.328 371.943C205.736 372.774 204.821 373.574 203.526 374.322L204.526 376.054ZM207.957 373.102C208.771 371.959 209.21 370.651 209.283 369.207L207.286 369.106C207.231 370.19 206.909 371.126 206.328 371.943L207.957 373.102ZM209.282 369.221C209.373 367.811 209.099 366.259 208.512 364.585L206.624 365.246C207.152 366.753 207.355 368.028 207.287 369.092L209.282 369.221ZM208.512 364.585C207.927 362.918 207.032 361.049 205.84 358.985L204.108 359.985C205.26 361.98 206.094 363.732 206.624 365.246L208.512 364.585ZM205.84 358.985L201.902 352.165L200.17 353.165L204.108 359.985L205.84 358.985ZM200.536 351.799L185.557 360.447L186.557 362.18L201.536 353.531L200.536 351.799ZM185.191 361.813L189.128 368.633L190.86 367.633L186.923 360.813L185.191 361.813ZM162.408 386.009C164.922 390.362 167.668 393.349 170.703 394.764L171.548 392.952C169.052 391.787 166.564 389.208 164.14 385.009L162.408 386.009ZM170.698 394.762C173.867 396.263 177.373 395.79 181.075 393.653L180.075 391.921C176.74 393.846 173.947 394.088 171.554 392.954L170.698 394.762ZM181.075 393.653C184.777 391.515 186.939 388.716 187.224 385.22L185.23 385.058C185.015 387.697 183.409 389.996 180.075 391.921L181.075 393.653ZM187.223 385.226C187.515 381.891 186.302 378.018 183.788 373.665L182.056 374.665C184.48 378.864 185.47 382.308 185.231 385.052L187.223 385.226ZM183.788 373.665L179.007 365.384L177.275 366.384L182.056 374.665L183.788 373.665ZM177.641 365.018L157.993 376.362L158.993 378.094L178.641 366.75L177.641 365.018ZM157.627 377.728L162.408 386.009L164.14 385.009L159.359 376.728L157.627 377.728Z" fill="#FFAA00"/>
</g>
<rect x="325.235" y="398.497" width="149.53" height="15" transform="rotate(-60 325.235 398.497)" fill="#FFAA00"/>
<rect width="83.8357" height="14.6813" transform="matrix(0.912295 -0.409534 0.406968 0.913442 112 74.3335)" fill="#F0F0F0"/>
<rect width="73.0199" height="10.7237" transform="matrix(-0.394932 -0.91871 0.917766 -0.397121 140.861 141.926)" fill="#F0F0F0"/>
<path d="M274.226 391H338.226V406H274.226V391Z" fill="#FFAA00"/>
<ellipse cx="17.1095" cy="17.3857" rx="17.1095" ry="17.3857" transform="matrix(0.917766 -0.397121 0.394932 0.91871 112.922 136.011)" fill="#F0F0F0"/>
<rect width="77.319" height="10.7237" transform="matrix(-0.394932 -0.91871 0.917766 -0.397121 210.479 117.948)" fill="#F0F0F0"/>
<ellipse cx="17.1095" cy="17.3857" rx="17.1095" ry="17.3857" transform="matrix(0.917766 -0.397121 0.394932 0.91871 183.445 113.806)" fill="#F0F0F0"/>
<rect width="83.8357" height="14.6813" transform="matrix(0.973765 0.227557 -0.230294 0.973121 307.119 30)" fill="#F0F0F0"/>
<rect width="73.0199" height="10.7237" transform="matrix(0.243059 -0.970012 0.970588 0.240745 289.081 101.249)" fill="#F0F0F0"/>
<ellipse cx="17.1095" cy="17.3857" rx="17.1095" ry="17.3857" transform="matrix(0.970588 0.240745 -0.243059 0.970012 270.451 79.6035)" fill="#F0F0F0"/>
<rect width="77.319" height="10.7237" transform="matrix(0.243059 -0.970012 0.970588 0.240745 358.979 124.397)" fill="#F0F0F0"/>
<ellipse cx="17.1095" cy="17.3857" rx="17.1095" ry="17.3857" transform="matrix(0.970588 0.240745 -0.243059 0.970012 339.994 104.711)" fill="#F0F0F0"/>
<defs>
<filter id="filter0_b_0_1" x="114.048" y="287.753" width="117.584" height="130.399" filterUnits="userSpaceOnUse" color-interpolation-filters="sRGB">
<feFlood flood-opacity="0" result="BackgroundImageFix"/>
<feGaussianBlur in="BackgroundImageFix" stdDeviation="2"/>
<feComposite in2="SourceAlpha" operator="in" result="effect1_backgroundBlur_0_1"/>
<feBlend mode="normal" in="SourceGraphic" in2="effect1_backgroundBlur_0_1" result="shape"/>
</filter>
</defs>
</svg>
