<svg width="449.403" height="64.203" viewBox="0 0 449.403 64.203" xmlns="http://www.w3.org/2000/svg"><g id="svgGroup" stroke-linecap="round" fill-rule="evenodd" font-size="9pt" stroke="#000000" stroke-width="0.25mm" fill="#000" style="stroke:#000000;stroke-width:0.25mm;fill:#000"><path d="M 25.603 49.502 L 25.603 40.402 A 2.767 2.767 0 0 0 25.465 39.491 Q 25.035 38.255 23.258 38.204 A 5.419 5.419 0 0 0 23.103 38.202 L 13.503 38.202 A 26.553 26.553 0 0 1 9.878 37.972 Q 5.293 37.338 3.053 34.952 Q 0.464 32.193 0.073 27.383 A 21.955 21.955 0 0 1 0.003 25.602 L 0.003 12.402 Q 0.003 0.748 12.897 0.046 A 31.399 31.399 0 0 1 14.603 0.002 L 28.303 0.002 Q 42.903 0.002 42.903 12.402 L 42.903 20.102 L 25.403 20.102 L 25.403 14.702 A 2.767 2.767 0 0 0 25.265 13.791 Q 24.835 12.555 23.058 12.504 A 5.419 5.419 0 0 0 22.903 12.502 L 20.003 12.502 Q 17.852 12.502 17.552 14.129 A 3.152 3.152 0 0 0 17.503 14.702 L 17.503 24.202 A 2.767 2.767 0 0 0 17.64 25.112 Q 18.07 26.348 19.848 26.399 A 5.419 5.419 0 0 0 20.003 26.402 L 29.403 26.402 Q 36.803 26.402 39.953 29.502 A 9.868 9.868 0 0 1 42.433 33.686 Q 42.925 35.265 43.055 37.176 A 20.924 20.924 0 0 1 43.103 38.602 L 43.103 51.802 Q 43.103 63.455 30.208 64.157 A 31.399 31.399 0 0 1 28.503 64.202 L 14.903 64.202 Q 0.203 64.202 0.203 51.802 L 0.203 44.102 L 17.703 44.102 L 17.703 49.502 A 2.767 2.767 0 0 0 17.84 50.412 Q 18.27 51.648 20.048 51.699 A 5.419 5.419 0 0 0 20.203 51.702 L 23.103 51.702 Q 25.253 51.702 25.554 50.074 A 3.152 3.152 0 0 0 25.603 49.502 Z M 127.603 14.302 L 139.803 14.302 Q 154.503 14.302 154.503 26.702 L 154.503 43.702 L 129.003 43.702 L 129.003 50.302 A 2.767 2.767 0 0 0 129.14 51.212 Q 129.57 52.448 131.348 52.499 A 5.419 5.419 0 0 0 131.503 52.502 L 135.903 52.502 Q 138.056 52.502 138.355 50.721 A 3.75 3.75 0 0 0 138.403 50.102 L 138.403 47.302 L 154.503 47.302 L 154.503 51.802 A 14.854 14.854 0 0 1 153.64 57.08 Q 150.943 64.202 139.803 64.202 L 127.603 64.202 Q 112.903 64.202 112.903 51.802 L 112.903 26.702 A 14.854 14.854 0 0 1 113.765 21.423 Q 116.463 14.302 127.603 14.302 Z M 174.703 14.302 L 186.903 14.302 Q 201.603 14.302 201.603 26.702 L 201.603 43.702 L 176.103 43.702 L 176.103 50.302 A 2.767 2.767 0 0 0 176.24 51.212 Q 176.67 52.448 178.448 52.499 A 5.419 5.419 0 0 0 178.603 52.502 L 183.003 52.502 Q 185.156 52.502 185.455 50.721 A 3.75 3.75 0 0 0 185.503 50.102 L 185.503 47.302 L 201.603 47.302 L 201.603 51.802 A 14.854 14.854 0 0 1 200.74 57.08 Q 198.043 64.202 186.903 64.202 L 174.703 64.202 Q 160.003 64.202 160.003 51.802 L 160.003 26.702 A 14.854 14.854 0 0 1 160.865 21.423 Q 163.563 14.302 174.703 14.302 Z M 303.703 14.302 L 315.903 14.302 Q 330.603 14.302 330.603 26.702 L 330.603 43.702 L 305.103 43.702 L 305.103 50.302 A 2.767 2.767 0 0 0 305.24 51.212 Q 305.67 52.448 307.448 52.499 A 5.419 5.419 0 0 0 307.603 52.502 L 312.003 52.502 Q 314.156 52.502 314.455 50.721 A 3.75 3.75 0 0 0 314.503 50.102 L 314.503 47.302 L 330.603 47.302 L 330.603 51.802 A 14.854 14.854 0 0 1 329.74 57.08 Q 327.043 64.202 315.903 64.202 L 303.703 64.202 Q 289.003 64.202 289.003 51.802 L 289.003 26.702 A 14.854 14.854 0 0 1 289.865 21.423 Q 292.563 14.302 303.703 14.302 Z M 430.203 52.302 L 449.403 52.302 L 449.403 64.202 L 412.303 64.202 L 412.303 52.302 L 430.203 26.202 L 413.603 26.202 L 413.603 14.302 L 448.403 14.302 L 448.403 26.202 L 430.203 52.302 Z M 238.403 64.202 L 238.403 0.002 L 267.803 0.002 Q 282.503 0.002 282.503 12.402 L 282.503 20.602 Q 282.503 29.302 277.703 31.902 A 8.146 8.146 0 0 1 279.616 33.03 A 6.201 6.201 0 0 1 281.503 35.552 Q 282.182 37.217 282.4 39.69 A 28.729 28.729 0 0 1 282.503 42.202 L 282.503 51.802 A 14.854 14.854 0 0 1 281.64 57.08 Q 278.943 64.202 267.803 64.202 L 238.403 64.202 Z M 360.303 20.702 L 360.303 14.302 L 377.003 14.302 L 377.003 64.202 L 360.003 64.202 L 360.003 58.802 Q 358.103 64.202 351.203 64.202 L 349.403 64.202 Q 336.103 64.202 336.103 51.802 L 336.103 26.702 A 16.536 16.536 0 0 1 336.809 21.645 Q 338.537 16.266 344.489 14.827 A 20.968 20.968 0 0 1 349.403 14.302 L 351.203 14.302 Q 358.564 14.302 360.167 20.15 A 10.868 10.868 0 0 1 360.303 20.702 Z M 75.403 14.302 L 75.403 26.802 L 69.103 26.802 L 69.103 49.502 A 2.767 2.767 0 0 0 69.24 50.412 Q 69.67 51.648 71.448 51.699 A 5.419 5.419 0 0 0 71.603 51.702 L 75.303 51.702 L 75.303 64.202 L 66.803 64.202 Q 52.103 64.202 52.103 51.802 L 52.103 26.802 L 46.603 26.802 L 46.603 14.302 L 52.103 14.302 L 52.103 4.502 L 69.103 4.502 L 69.103 14.302 L 75.403 14.302 Z M 233.403 14.302 L 233.403 26.802 L 227.103 26.802 L 227.103 49.502 A 2.767 2.767 0 0 0 227.24 50.412 Q 227.67 51.648 229.448 51.699 A 5.419 5.419 0 0 0 229.603 51.702 L 233.303 51.702 L 233.303 64.202 L 224.803 64.202 Q 210.103 64.202 210.103 51.802 L 210.103 26.802 L 204.603 26.802 L 204.603 14.302 L 210.103 14.302 L 210.103 4.502 L 227.103 4.502 L 227.103 14.302 L 233.403 14.302 Z M 410.303 14.302 L 410.303 26.802 L 404.003 26.802 L 404.003 49.502 A 2.767 2.767 0 0 0 404.14 50.412 Q 404.57 51.648 406.348 51.699 A 5.419 5.419 0 0 0 406.503 51.702 L 410.203 51.702 L 410.203 64.202 L 401.703 64.202 Q 387.003 64.202 387.003 51.802 L 387.003 26.802 L 381.503 26.802 L 381.503 14.302 L 387.003 14.302 L 387.003 4.502 L 404.003 4.502 L 404.003 14.302 L 410.303 14.302 Z M 107.903 13.802 L 109.403 13.802 L 109.403 28.602 L 103.703 28.602 Q 97.403 28.602 97.403 35.402 L 97.403 64.202 L 80.403 64.202 L 80.403 14.302 L 97.103 14.302 L 97.103 22.002 A 10.956 10.956 0 0 1 98.375 18.648 A 9.499 9.499 0 0 1 100.703 16.002 A 9.989 9.989 0 0 1 104.768 14.124 A 14.429 14.429 0 0 1 107.903 13.802 Z M 355.603 51.702 L 357.303 51.702 A 3.467 3.467 0 0 0 358.42 51.537 Q 359.965 51.011 360.002 48.81 A 6.487 6.487 0 0 0 360.003 48.702 L 360.003 29.802 A 4.856 4.856 0 0 0 359.883 28.669 Q 359.518 27.155 358.048 26.868 A 3.902 3.902 0 0 0 357.303 26.802 L 355.603 26.802 Q 353.452 26.802 353.152 28.429 A 3.152 3.152 0 0 0 353.103 29.002 L 353.103 49.502 A 2.767 2.767 0 0 0 353.24 50.412 Q 353.67 51.648 355.448 51.699 A 5.419 5.419 0 0 0 355.603 51.702 Z M 265.303 50.502 L 265.303 40.002 A 2.767 2.767 0 0 0 265.165 39.091 Q 264.735 37.855 262.958 37.804 A 5.419 5.419 0 0 0 262.803 37.802 L 255.603 37.802 L 255.603 52.702 L 262.803 52.702 Q 264.953 52.702 265.254 51.074 A 3.152 3.152 0 0 0 265.303 50.502 Z M 265.303 24.102 L 265.303 13.702 A 2.767 2.767 0 0 0 265.165 12.791 Q 264.735 11.555 262.958 11.504 A 5.419 5.419 0 0 0 262.803 11.502 L 255.603 11.502 L 255.603 26.302 L 262.803 26.302 Q 264.953 26.302 265.254 24.674 A 3.152 3.152 0 0 0 265.303 24.102 Z M 129.003 28.202 L 129.003 34.502 L 138.403 34.502 L 138.403 28.202 A 2.767 2.767 0 0 0 138.265 27.291 Q 137.835 26.055 136.058 26.004 A 5.419 5.419 0 0 0 135.903 26.002 L 131.503 26.002 Q 129.352 26.002 129.052 27.629 A 3.152 3.152 0 0 0 129.003 28.202 Z M 176.103 28.202 L 176.103 34.502 L 185.503 34.502 L 185.503 28.202 A 2.767 2.767 0 0 0 185.365 27.291 Q 184.935 26.055 183.158 26.004 A 5.419 5.419 0 0 0 183.003 26.002 L 178.603 26.002 Q 176.452 26.002 176.152 27.629 A 3.152 3.152 0 0 0 176.103 28.202 Z M 305.103 28.202 L 305.103 34.502 L 314.503 34.502 L 314.503 28.202 A 2.767 2.767 0 0 0 314.365 27.291 Q 313.935 26.055 312.158 26.004 A 5.419 5.419 0 0 0 312.003 26.002 L 307.603 26.002 Q 305.452 26.002 305.152 27.629 A 3.152 3.152 0 0 0 305.103 28.202 Z" vector-effect="non-scaling-stroke"/></g></svg>