<svg width="445.703" height="66.902" viewBox="0 0 445.703 66.902" xmlns="http://www.w3.org/2000/svg"><g id="svgGroup" stroke-linecap="round" fill-rule="evenodd" font-size="9pt" stroke="#000" stroke-width="0.25mm" fill="#000" style="stroke:#000;stroke-width:0.25mm;fill:#000"><path d="M 25.603 52.2 L 25.603 43.1 A 2.767 2.767 0 0 0 25.465 42.19 Q 25.035 40.953 23.258 40.902 A 5.419 5.419 0 0 0 23.103 40.9 L 13.503 40.9 A 26.553 26.553 0 0 1 9.878 40.671 Q 5.293 40.037 3.053 37.65 Q 0.464 34.892 0.073 30.081 A 21.955 21.955 0 0 1 0.003 28.3 L 0.003 15.1 Q 0.003 3.447 12.897 2.745 A 31.399 31.399 0 0 1 14.603 2.7 L 28.303 2.7 Q 42.903 2.7 42.903 15.1 L 42.903 22.8 L 25.403 22.8 L 25.403 17.4 A 2.767 2.767 0 0 0 25.265 16.49 Q 24.835 15.253 23.058 15.202 A 5.419 5.419 0 0 0 22.903 15.2 L 20.003 15.2 Q 17.852 15.2 17.552 16.827 A 3.152 3.152 0 0 0 17.503 17.4 L 17.503 26.9 A 2.767 2.767 0 0 0 17.64 27.81 Q 18.07 29.047 19.848 29.098 A 5.419 5.419 0 0 0 20.003 29.1 L 29.403 29.1 Q 36.803 29.1 39.953 32.2 A 9.868 9.868 0 0 1 42.433 36.385 Q 42.925 37.963 43.055 39.874 A 20.924 20.924 0 0 1 43.103 41.3 L 43.103 54.5 Q 43.103 66.153 30.208 66.855 A 31.399 31.399 0 0 1 28.503 66.9 L 14.903 66.9 Q 0.203 66.9 0.203 54.5 L 0.203 46.8 L 17.703 46.8 L 17.703 52.2 A 2.767 2.767 0 0 0 17.84 53.11 Q 18.27 54.347 20.048 54.398 A 5.419 5.419 0 0 0 20.203 54.4 L 23.103 54.4 Q 25.253 54.4 25.554 52.773 A 3.152 3.152 0 0 0 25.603 52.2 Z M 264.203 17 L 266.003 17 Q 279.303 17 279.303 29.4 L 279.303 54.5 A 16.536 16.536 0 0 1 278.596 59.557 Q 276.869 64.935 270.916 66.374 A 20.968 20.968 0 0 1 266.003 66.9 L 264.203 66.9 Q 256.842 66.9 255.238 61.051 A 10.868 10.868 0 0 1 255.103 60.5 L 255.103 66.9 L 238.403 66.9 L 238.403 0 L 255.403 0 L 255.403 22.4 Q 257.303 17 264.203 17 Z M 127.603 17 L 139.803 17 Q 154.503 17 154.503 29.4 L 154.503 46.4 L 129.003 46.4 L 129.003 53 A 2.767 2.767 0 0 0 129.14 53.91 Q 129.57 55.147 131.348 55.198 A 5.419 5.419 0 0 0 131.503 55.2 L 135.903 55.2 Q 138.056 55.2 138.355 53.42 A 3.75 3.75 0 0 0 138.403 52.8 L 138.403 50 L 154.503 50 L 154.503 54.5 A 14.854 14.854 0 0 1 153.64 59.779 Q 150.943 66.9 139.803 66.9 L 127.603 66.9 Q 112.903 66.9 112.903 54.5 L 112.903 29.4 A 14.854 14.854 0 0 1 113.765 24.121 Q 116.463 17 127.603 17 Z M 174.703 17 L 186.903 17 Q 201.603 17 201.603 29.4 L 201.603 46.4 L 176.103 46.4 L 176.103 53 A 2.767 2.767 0 0 0 176.24 53.91 Q 176.67 55.147 178.448 55.198 A 5.419 5.419 0 0 0 178.603 55.2 L 183.003 55.2 Q 185.156 55.2 185.455 53.42 A 3.75 3.75 0 0 0 185.503 52.8 L 185.503 50 L 201.603 50 L 201.603 54.5 A 14.854 14.854 0 0 1 200.74 59.779 Q 198.043 66.9 186.903 66.9 L 174.703 66.9 Q 160.003 66.9 160.003 54.5 L 160.003 29.4 A 14.854 14.854 0 0 1 160.865 24.121 Q 163.563 17 174.703 17 Z M 300.003 17 L 312.203 17 Q 326.903 17 326.903 29.4 L 326.903 46.4 L 301.403 46.4 L 301.403 53 A 2.767 2.767 0 0 0 301.54 53.91 Q 301.97 55.147 303.748 55.198 A 5.419 5.419 0 0 0 303.903 55.2 L 308.303 55.2 Q 310.456 55.2 310.755 53.42 A 3.75 3.75 0 0 0 310.803 52.8 L 310.803 50 L 326.903 50 L 326.903 54.5 A 14.854 14.854 0 0 1 326.04 59.779 Q 323.343 66.9 312.203 66.9 L 300.003 66.9 Q 285.303 66.9 285.303 54.5 L 285.303 29.4 A 14.854 14.854 0 0 1 286.165 24.121 Q 288.863 17 300.003 17 Z M 426.503 55 L 445.703 55 L 445.703 66.9 L 408.603 66.9 L 408.603 55 L 426.503 28.9 L 409.903 28.9 L 409.903 17 L 444.703 17 L 444.703 28.9 L 426.503 55 Z M 356.603 23.4 L 356.603 17 L 373.303 17 L 373.303 66.9 L 356.303 66.9 L 356.303 61.5 Q 354.403 66.9 347.503 66.9 L 345.703 66.9 Q 332.403 66.9 332.403 54.5 L 332.403 29.4 A 16.536 16.536 0 0 1 333.109 24.343 Q 334.837 18.965 340.789 17.526 A 20.968 20.968 0 0 1 345.703 17 L 347.503 17 Q 354.864 17 356.467 22.849 A 10.868 10.868 0 0 1 356.603 23.4 Z M 75.403 17 L 75.403 29.5 L 69.103 29.5 L 69.103 52.2 A 2.767 2.767 0 0 0 69.24 53.11 Q 69.67 54.347 71.448 54.398 A 5.419 5.419 0 0 0 71.603 54.4 L 75.303 54.4 L 75.303 66.9 L 66.803 66.9 Q 52.103 66.9 52.103 54.5 L 52.103 29.5 L 46.603 29.5 L 46.603 17 L 52.103 17 L 52.103 7.2 L 69.103 7.2 L 69.103 17 L 75.403 17 Z M 233.403 17 L 233.403 29.5 L 227.103 29.5 L 227.103 52.2 A 2.767 2.767 0 0 0 227.24 53.11 Q 227.67 54.347 229.448 54.398 A 5.419 5.419 0 0 0 229.603 54.4 L 233.303 54.4 L 233.303 66.9 L 224.803 66.9 Q 210.103 66.9 210.103 54.5 L 210.103 29.5 L 204.603 29.5 L 204.603 17 L 210.103 17 L 210.103 7.2 L 227.103 7.2 L 227.103 17 L 233.403 17 Z M 406.603 17 L 406.603 29.5 L 400.303 29.5 L 400.303 52.2 A 2.767 2.767 0 0 0 400.44 53.11 Q 400.87 54.347 402.648 54.398 A 5.419 5.419 0 0 0 402.803 54.4 L 406.503 54.4 L 406.503 66.9 L 398.003 66.9 Q 383.303 66.9 383.303 54.5 L 383.303 29.5 L 377.803 29.5 L 377.803 17 L 383.303 17 L 383.303 7.2 L 400.303 7.2 L 400.303 17 L 406.603 17 Z M 107.903 16.5 L 109.403 16.5 L 109.403 31.3 L 103.703 31.3 Q 97.403 31.3 97.403 38.1 L 97.403 66.9 L 80.403 66.9 L 80.403 17 L 97.103 17 L 97.103 24.7 A 10.956 10.956 0 0 1 98.375 21.347 A 9.499 9.499 0 0 1 100.703 18.7 A 9.989 9.989 0 0 1 104.768 16.822 A 14.429 14.429 0 0 1 107.903 16.5 Z M 351.903 54.4 L 353.603 54.4 A 3.467 3.467 0 0 0 354.72 54.235 Q 356.265 53.71 356.302 51.508 A 6.487 6.487 0 0 0 356.303 51.4 L 356.303 32.5 A 4.856 4.856 0 0 0 356.183 31.368 Q 355.818 29.853 354.348 29.567 A 3.902 3.902 0 0 0 353.603 29.5 L 351.903 29.5 Q 349.752 29.5 349.452 31.127 A 3.152 3.152 0 0 0 349.403 31.7 L 349.403 52.2 A 2.767 2.767 0 0 0 349.54 53.11 Q 349.97 54.347 351.748 54.398 A 5.419 5.419 0 0 0 351.903 54.4 Z M 262.303 52.2 L 262.303 31.7 A 2.767 2.767 0 0 0 262.165 30.79 Q 261.735 29.553 259.958 29.502 A 5.419 5.419 0 0 0 259.803 29.5 L 258.103 29.5 A 3.467 3.467 0 0 0 256.985 29.665 Q 255.44 30.19 255.404 32.392 A 6.487 6.487 0 0 0 255.403 32.5 L 255.403 51.4 A 4.856 4.856 0 0 0 255.523 52.532 Q 255.887 54.047 257.357 54.333 A 3.902 3.902 0 0 0 258.103 54.4 L 259.803 54.4 Q 261.953 54.4 262.254 52.773 A 3.152 3.152 0 0 0 262.303 52.2 Z M 129.003 30.9 L 129.003 37.2 L 138.403 37.2 L 138.403 30.9 A 2.767 2.767 0 0 0 138.265 29.99 Q 137.835 28.753 136.058 28.702 A 5.419 5.419 0 0 0 135.903 28.7 L 131.503 28.7 Q 129.352 28.7 129.052 30.327 A 3.152 3.152 0 0 0 129.003 30.9 Z M 176.103 30.9 L 176.103 37.2 L 185.503 37.2 L 185.503 30.9 A 2.767 2.767 0 0 0 185.365 29.99 Q 184.935 28.753 183.158 28.702 A 5.419 5.419 0 0 0 183.003 28.7 L 178.603 28.7 Q 176.452 28.7 176.152 30.327 A 3.152 3.152 0 0 0 176.103 30.9 Z M 301.403 30.9 L 301.403 37.2 L 310.803 37.2 L 310.803 30.9 A 2.767 2.767 0 0 0 310.665 29.99 Q 310.235 28.753 308.458 28.702 A 5.419 5.419 0 0 0 308.303 28.7 L 303.903 28.7 Q 301.752 28.7 301.452 30.327 A 3.152 3.152 0 0 0 301.403 30.9 Z" vector-effect="non-scaling-stroke"/></g></svg>