<?xml version="1.0" encoding="UTF-8" standalone="no"?>
<!-- Created with Inkscape (http://www.inkscape.org/) -->

<svg
   version="1.1"
   id="svg2"
   width="366.66666"
   height="366.66666"
   viewBox="0 0 366.66666 366.66666"
   sodipodi:docname="blue_backgroundBall.svg"
   inkscape:version="1.2.2 (732a01da63, 2022-12-09)"
   xmlns:inkscape="http://www.inkscape.org/namespaces/inkscape"
   xmlns:sodipodi="http://sodipodi.sourceforge.net/DTD/sodipodi-0.dtd"
   xmlns="http://www.w3.org/2000/svg"
   xmlns:svg="http://www.w3.org/2000/svg">
  <defs
     id="defs6">
    <clipPath
       clipPathUnits="userSpaceOnUse"
       id="clipPath20">
      <path
         d="M 137.5,275 C 61.561,275 0,213.439 0,137.5 v 0 C 0,61.561 61.561,0 137.5,0 V 0 C 213.439,0 275,61.561 275,137.5 v 0 C 275,213.439 213.439,275 137.5,275 Z"
         id="path18" />
    </clipPath>
    <linearGradient
       x1="0"
       y1="0"
       x2="1"
       y2="0"
       gradientUnits="userSpaceOnUse"
       gradientTransform="matrix(0,275,275,0,137.5,0)"
       spreadMethod="pad"
       id="linearGradient34">
      <stop
         style="stop-opacity:1;stop-color:#421ae1"
         offset="0"
         id="stop26" />
      <stop
         style="stop-opacity:1;stop-color:#421ae1"
         offset="0.0325094"
         id="stop28" />
      <stop
         style="stop-opacity:1;stop-color:#6e6fff"
         offset="0.957546"
         id="stop30" />
      <stop
         style="stop-opacity:1;stop-color:#6e6fff"
         offset="1"
         id="stop32" />
    </linearGradient>
  </defs>
  <sodipodi:namedview
     id="namedview4"
     pagecolor="#505050"
     bordercolor="#eeeeee"
     borderopacity="1"
     inkscape:showpageshadow="0"
     inkscape:pageopacity="0"
     inkscape:pagecheckerboard="0"
     inkscape:deskcolor="#505050"
     showgrid="false"
     inkscape:zoom="2.2200001"
     inkscape:cx="141.89189"
     inkscape:cy="184.009"
     inkscape:window-width="2400"
     inkscape:window-height="1271"
     inkscape:window-x="2391"
     inkscape:window-y="-9"
     inkscape:window-maximized="1"
     inkscape:current-layer="g10">
    <inkscape:page
       x="0"
       y="0"
       id="page8"
       width="366.66666"
       height="366.66666" />
  </sodipodi:namedview>
  <g
     id="g10"
     inkscape:groupmode="layer"
     inkscape:label="Page 1"
     transform="matrix(1.3333333,0,0,-1.3333333,0,366.66667)">
    <g
       id="g14">
      <g
         id="g16"
         clip-path="url(#clipPath20)">
        <g
           id="g22">
          <g
             id="g24">
            <path
               d="M 137.5,275 C 61.561,275 0,213.439 0,137.5 v 0 C 0,61.561 61.561,0 137.5,0 V 0 C 213.439,0 275,61.561 275,137.5 v 0 C 275,213.439 213.439,275 137.5,275 Z"
               style="fill:url(#linearGradient34);stroke:none"
               id="path36" />
          </g>
        </g>
      </g>
    </g>
  </g>
</svg>
