<svg width="751" height="828" viewBox="0 0 751 828" fill="none" xmlns="http://www.w3.org/2000/svg">
  <g filter="url(#filter0_d_410_59)">
    <path d="M701.5 359C701.5 548.158 548.157 701.5 359 701.5C169.842 701.5 16.5 548.158 16.5 359C16.5 169.842 169.842 16.5 359 16.5C548.157 16.5 701.5 169.842 701.5 359Z" fill="url(#paint0_linear_410_59)" stroke="white" stroke-width="33"/>
    <path d="M358.5 771L520.88 671.25H196.12L358.5 771Z" fill="white"/>
    <mask id="path-3-inside-1_410_59" fill="white">
      <path fill-rule="evenodd" clip-rule="evenodd" d="M281.861 468.477C268.974 481.364 248.079 481.364 235.192 468.477C222.305 455.59 222.305 434.695 235.192 421.808L262 395H149C130.775 395 116 380.226 116 362C116 343.775 130.775 329 149 329H262.517L235.192 301.675C222.305 288.787 222.305 267.893 235.192 255.006C248.079 242.118 268.974 242.118 281.861 255.006L364.829 337.973C371.384 344.528 374.604 353.155 374.491 361.745C374.602 370.333 371.382 378.956 364.829 385.509L281.861 468.477Z"/>
    </mask>
    <path fill-rule="evenodd" clip-rule="evenodd" d="M281.861 468.477C268.974 481.364 248.079 481.364 235.192 468.477C222.305 455.59 222.305 434.695 235.192 421.808L262 395H149C130.775 395 116 380.226 116 362C116 343.775 130.775 329 149 329H262.517L235.192 301.675C222.305 288.787 222.305 267.893 235.192 255.006C248.079 242.118 268.974 242.118 281.861 255.006L364.829 337.973C371.384 344.528 374.604 353.155 374.491 361.745C374.602 370.333 371.382 378.956 364.829 385.509L281.861 468.477Z" fill="white"/>
    <path d="M235.192 468.477L248.627 455.042L248.627 455.042L235.192 468.477ZM281.861 468.477L268.426 455.042V455.042L281.861 468.477ZM235.192 421.808L221.757 408.373V408.373L235.192 421.808ZM262 395L275.435 408.435L307.87 376H262V395ZM262.517 329V348H308.387L275.952 315.565L262.517 329ZM235.192 255.006L248.627 268.441H248.627L235.192 255.006ZM281.861 255.006L268.426 268.441L281.861 255.006ZM364.829 337.973L351.394 351.408L351.394 351.408L364.829 337.973ZM374.491 361.745L355.493 361.495L355.49 361.743L355.493 361.991L374.491 361.745ZM364.829 385.509L351.394 372.074L364.829 385.509ZM221.757 481.912C242.064 502.219 274.989 502.219 295.296 481.912L268.426 455.042C262.958 460.509 254.094 460.509 248.627 455.042L221.757 481.912ZM221.757 408.373C201.45 428.68 201.45 461.605 221.757 481.912L248.627 455.042C243.16 449.575 243.16 440.71 248.627 435.243L221.757 408.373ZM248.565 381.565L221.757 408.373L248.627 435.243L275.435 408.435L248.565 381.565ZM262 376H149V414H262V376ZM149 376C141.268 376 135 369.732 135 362H97.0004C97.0004 390.719 120.282 414 149 414V376ZM135 362C135 354.268 141.268 348 149 348V310C120.282 310 97.0004 333.281 97.0004 362H135ZM149 348H262.517V310H149V348ZM221.757 315.11L249.082 342.435L275.952 315.565L248.627 288.24L221.757 315.11ZM221.757 241.571C201.45 261.878 201.45 294.803 221.757 315.11L248.627 288.24C243.16 282.772 243.16 273.908 248.627 268.441L221.757 241.571ZM295.296 241.571C274.989 221.263 242.064 221.263 221.757 241.571L248.627 268.441C254.094 262.973 262.959 262.973 268.426 268.441L295.296 241.571ZM378.264 324.538L295.296 241.571L268.426 268.441L351.394 351.408L378.264 324.538ZM393.49 361.995C393.667 348.491 388.59 334.865 378.264 324.538L351.394 351.408C354.177 354.192 355.541 357.818 355.493 361.495L393.49 361.995ZM378.264 398.944C388.587 388.621 393.664 375 393.49 361.499L355.493 361.991C355.54 365.667 354.176 369.292 351.394 372.074L378.264 398.944ZM295.296 481.912L378.264 398.944L351.394 372.074L268.426 455.042L295.296 481.912Z" fill="white" mask="url(#path-3-inside-1_410_59)"/>
    <path fill-rule="evenodd" clip-rule="evenodd" d="M327.003 203C327.003 195.82 332.823 190 340.003 190H539.003C546.183 190 552.003 195.82 552.003 203V514.5C552.003 521.68 546.183 527.5 539.003 527.5H340.003C332.823 527.5 327.003 521.68 327.003 514.5V468.814C332.396 466.654 337.45 463.39 341.818 459.022L408.876 391.964C417.626 383.215 421.945 371.713 421.835 360.246C421.948 348.776 417.628 337.27 408.876 328.518L341.819 261.46C337.45 257.092 332.396 253.828 327.003 251.669V203ZM531.003 359.5C531.003 376.069 517.571 389.5 501.003 389.5C484.434 389.5 471.003 376.069 471.003 359.5C471.003 342.931 484.434 329.5 501.003 329.5C517.571 329.5 531.003 342.931 531.003 359.5Z" fill="white"/>
  </g>
  <defs>
    <filter id="filter0_d_410_59" x="0" y="0" width="751" height="828" filterUnits="userSpaceOnUse" color-interpolation-filters="sRGB">
      <feFlood flood-opacity="0" result="BackgroundImageFix"/>
      <feColorMatrix in="SourceAlpha" type="matrix" values="0 0 0 0 0 0 0 0 0 0 0 0 0 0 0 0 0 0 127 0" result="hardAlpha"/>
      <feOffset dx="17" dy="41"/>
      <feGaussianBlur stdDeviation="8"/>
      <feComposite in2="hardAlpha" operator="out"/>
      <feColorMatrix type="matrix" values="0 0 0 0 0 0 0 0 0 0 0 0 0 0 0 0 0 0 0.25 0"/>
      <feBlend mode="normal" in2="BackgroundImageFix" result="effect1_dropShadow_410_59"/>
      <feBlend mode="normal" in="SourceGraphic" in2="effect1_dropShadow_410_59" result="shape"/>
    </filter>
    <linearGradient id="paint0_linear_410_59" x1="359" y1="718" x2="359" y2="0" gradientUnits="userSpaceOnUse">
      <stop stop-color="#FFC161"/>
      <stop offset="1" stop-color="#F95B5D"/>
    </linearGradient>
  </defs>
</svg>
