<svg width="751" height="828" viewBox="0 0 751 828" fill="none" xmlns="http://www.w3.org/2000/svg">
  <g filter="url(#filter0_d_450_206)">
    <path d="M701.5 359C701.5 548.158 548.157 701.5 359 701.5C169.842 701.5 16.5 548.158 16.5 359C16.5 169.842 169.842 16.5 359 16.5C548.157 16.5 701.5 169.842 701.5 359Z" fill="url(#paint0_linear_450_206)" stroke="white" stroke-width="33"/>
    <path d="M358.5 771L520.88 671.25H196.12L358.5 771Z" fill="white"/>
    <path fill-rule="evenodd" clip-rule="evenodd" d="M327.003 203C327.003 195.82 332.823 190 340.003 190H539.003C546.183 190 552.003 195.82 552.003 203V514.5C552.003 521.68 546.183 527.5 539.003 527.5H340.003C332.823 527.5 327.003 521.68 327.003 514.5V468.814C332.396 466.654 337.45 463.39 341.818 459.022L408.876 391.964C417.626 383.215 421.945 371.713 421.835 360.246C421.948 348.776 417.628 337.27 408.876 328.518L341.819 261.46C337.45 257.092 332.396 253.828 327.003 251.669V203ZM531.003 359.5C531.003 376.069 517.571 389.5 501.003 389.5C484.434 389.5 471.003 376.069 471.003 359.5C471.003 342.931 484.434 329.5 501.003 329.5C517.571 329.5 531.003 342.931 531.003 359.5Z" fill="white"/>
  </g>
  <mask id="path-4-inside-1_450_206" fill="white">
    <path fill-rule="evenodd" clip-rule="evenodd" d="M243.192 468.137C256.079 481.025 276.974 481.025 289.861 468.137L372.829 385.17C379.382 378.617 382.602 369.993 382.491 361.405C382.604 352.815 379.384 344.188 372.829 337.634L289.861 254.666C276.974 241.779 256.079 241.779 243.192 254.666C230.305 267.553 230.305 288.448 243.192 301.335L270.517 328.66H184C183.934 328.66 183.867 328.66 183.8 328.66H165.976L193.302 301.334C206.19 288.447 206.19 267.553 193.302 254.665C180.415 241.778 159.52 241.778 146.633 254.665L63.6655 337.633C57.1106 344.188 53.8898 352.814 54.0029 361.405C53.8917 369.993 57.1126 378.616 63.6656 385.169L146.633 468.137C159.521 481.024 180.415 481.024 193.302 468.137C206.19 455.249 206.19 434.355 193.302 421.468L166.495 394.66H252.494C252.561 394.66 252.627 394.66 252.694 394.66H270L243.192 421.468C230.305 434.356 230.305 455.25 243.192 468.137Z"/>
  </mask>
  <path fill-rule="evenodd" clip-rule="evenodd" d="M243.192 468.137C256.079 481.025 276.974 481.025 289.861 468.137L372.829 385.17C379.382 378.617 382.602 369.993 382.491 361.405C382.604 352.815 379.384 344.188 372.829 337.634L289.861 254.666C276.974 241.779 256.079 241.779 243.192 254.666C230.305 267.553 230.305 288.448 243.192 301.335L270.517 328.66H184C183.934 328.66 183.867 328.66 183.8 328.66H165.976L193.302 301.334C206.19 288.447 206.19 267.553 193.302 254.665C180.415 241.778 159.52 241.778 146.633 254.665L63.6655 337.633C57.1106 344.188 53.8898 352.814 54.0029 361.405C53.8917 369.993 57.1126 378.616 63.6656 385.169L146.633 468.137C159.521 481.024 180.415 481.024 193.302 468.137C206.19 455.249 206.19 434.355 193.302 421.468L166.495 394.66H252.494C252.561 394.66 252.627 394.66 252.694 394.66H270L243.192 421.468C230.305 434.356 230.305 455.25 243.192 468.137Z" fill="white"/>
  <path d="M289.861 468.137L276.426 454.702L289.861 468.137ZM243.192 468.137L256.627 454.702L256.627 454.702L243.192 468.137ZM372.829 385.17L359.394 371.735V371.735L372.829 385.17ZM382.491 361.405L363.493 361.651L363.49 361.403L363.493 361.155L382.491 361.405ZM372.829 337.634L386.264 324.199L372.829 337.634ZM289.861 254.666L276.426 268.101L289.861 254.666ZM243.192 254.666L256.627 268.101H256.627L243.192 254.666ZM270.517 328.66L283.952 315.225L316.387 347.66H270.517V328.66ZM183.8 328.66L183.913 347.66L183.857 347.66H183.8V328.66ZM165.976 328.66V347.66H120.106L152.541 315.225L165.976 328.66ZM146.633 254.665L160.068 268.1L146.633 254.665ZM63.6655 337.633L77.1005 351.068L77.1005 351.068L63.6655 337.633ZM54.0029 361.405L73.0012 361.155L73.0045 361.403L73.0013 361.651L54.0029 361.405ZM63.6656 385.169L77.1006 371.734L63.6656 385.169ZM146.633 468.137L160.068 454.702V454.702L146.633 468.137ZM193.302 468.137L179.867 454.702L193.302 468.137ZM193.302 421.468L206.737 408.033V408.033L193.302 421.468ZM166.495 394.66L153.06 408.095L120.625 375.66H166.495V394.66ZM252.694 394.66L252.581 375.66L252.638 375.66H252.694V394.66ZM270 394.66V375.66H315.87L283.435 408.095L270 394.66ZM243.192 421.468L229.757 408.033L243.192 421.468ZM303.296 481.572C282.989 501.88 250.064 501.88 229.757 481.572L256.627 454.702C262.094 460.17 270.958 460.17 276.426 454.702L303.296 481.572ZM386.264 398.605L303.296 481.572L276.426 454.702L359.394 371.735L386.264 398.605ZM401.49 361.159C401.664 374.66 396.587 388.281 386.264 398.605L359.394 371.735C362.176 368.952 363.54 365.327 363.493 361.651L401.49 361.159ZM386.264 324.199C396.59 334.525 401.667 348.151 401.49 361.655L363.493 361.155C363.541 357.478 362.177 353.852 359.394 351.069L386.264 324.199ZM303.296 241.231L386.264 324.199L359.394 351.069L276.426 268.101L303.296 241.231ZM229.757 241.231C250.064 220.924 282.989 220.924 303.296 241.231L276.426 268.101C270.959 262.634 262.094 262.634 256.627 268.101L229.757 241.231ZM229.757 314.77C209.45 294.463 209.45 261.538 229.757 241.231L256.627 268.101C251.16 273.568 251.16 282.433 256.627 287.9L229.757 314.77ZM257.082 342.095L229.757 314.77L256.627 287.9L283.952 315.225L257.082 342.095ZM184 309.66H270.517V347.66H184V309.66ZM183.687 309.661C183.792 309.66 183.896 309.66 184 309.66V347.66C183.971 347.66 183.942 347.66 183.913 347.66L183.687 309.661ZM183.8 347.66H165.976V309.66H183.8V347.66ZM152.541 315.225L179.867 287.899L206.737 314.769L179.411 342.095L152.541 315.225ZM179.867 287.899C185.335 282.432 185.335 273.568 179.867 268.1L206.737 241.23C227.045 261.538 227.045 294.462 206.737 314.769L179.867 287.899ZM179.867 268.1C174.4 262.633 165.536 262.633 160.068 268.1L133.198 241.23C153.505 220.923 186.43 220.923 206.737 241.23L179.867 268.1ZM160.068 268.1L77.1005 351.068L50.2305 324.198L133.198 241.23L160.068 268.1ZM77.1005 351.068C74.3171 353.852 72.9528 357.478 73.0012 361.155L35.0045 361.655C34.8267 348.151 39.9041 334.524 50.2305 324.198L77.1005 351.068ZM73.0013 361.651C72.9537 365.326 74.318 368.951 77.1006 371.734L50.2305 398.604C39.9072 388.281 34.8297 374.66 35.0045 361.159L73.0013 361.651ZM77.1006 371.734L160.068 454.702L133.198 481.572L50.2305 398.604L77.1006 371.734ZM160.068 454.702C165.536 460.169 174.4 460.169 179.867 454.702L206.737 481.572C186.43 501.879 153.506 501.879 133.198 481.572L160.068 454.702ZM179.867 454.702C185.335 449.234 185.335 440.37 179.867 434.903L206.737 408.033C227.045 428.34 227.045 461.265 206.737 481.572L179.867 454.702ZM179.867 434.903L153.06 408.095L179.93 381.225L206.737 408.033L179.867 434.903ZM166.495 375.66H252.494V413.66H166.495V375.66ZM252.494 375.66C252.523 375.66 252.552 375.66 252.581 375.66L252.807 413.659C252.703 413.66 252.598 413.66 252.494 413.66V375.66ZM270 413.66H252.694V375.66H270V413.66ZM229.757 408.033L256.565 381.225L283.435 408.095L256.627 434.903L229.757 408.033ZM229.757 481.572C209.45 461.265 209.45 428.34 229.757 408.033L256.627 434.903C251.16 440.371 251.16 449.235 256.627 454.702L229.757 481.572Z" fill="white" mask="url(#path-4-inside-1_450_206)"/>
  <defs>
    <filter id="filter0_d_450_206" x="0" y="0" width="751" height="828" filterUnits="userSpaceOnUse" color-interpolation-filters="sRGB">
      <feFlood flood-opacity="0" result="BackgroundImageFix"/>
      <feColorMatrix in="SourceAlpha" type="matrix" values="0 0 0 0 0 0 0 0 0 0 0 0 0 0 0 0 0 0 127 0" result="hardAlpha"/>
      <feOffset dx="17" dy="41"/>
      <feGaussianBlur stdDeviation="8"/>
      <feComposite in2="hardAlpha" operator="out"/>
      <feColorMatrix type="matrix" values="0 0 0 0 0 0 0 0 0 0 0 0 0 0 0 0 0 0 0.25 0"/>
      <feBlend mode="normal" in2="BackgroundImageFix" result="effect1_dropShadow_450_206"/>
      <feBlend mode="normal" in="SourceGraphic" in2="effect1_dropShadow_450_206" result="shape"/>
    </filter>
    <linearGradient id="paint0_linear_450_206" x1="359" y1="718" x2="359" y2="0" gradientUnits="userSpaceOnUse">
      <stop stop-color="#FFC161"/>
      <stop offset="1" stop-color="#F95B5D"/>
    </linearGradient>
  </defs>
</svg>
