<svg width="718" height="771" viewBox="0 0 718 771" fill="none" xmlns="http://www.w3.org/2000/svg">
  <path d="M707.5 359C707.5 551.471 551.471 707.5 359 707.5C166.529 707.5 10.5 551.471 10.5 359C10.5 166.529 166.529 10.5 359 10.5C551.471 10.5 707.5 166.529 707.5 359Z" fill="url(#paint0_linear_0_1)" stroke="black" stroke-width="21"/>
  <path d="M358.5 771L520.88 671.25H196.12L358.5 771Z" fill="black"/>
  <mask id="path-3-inside-1_0_1" fill="white">
    <rect x="293" y="190" width="225" height="337.5" rx="13"/>
  </mask>
  <rect x="293" y="190" width="225" height="337.5" rx="13" fill="black" stroke="black" stroke-width="34" mask="url(#path-3-inside-1_0_1)"/>
  <ellipse cx="467" cy="359.5" rx="30" ry="30" fill="white"/>
  <mask id="path-5-inside-2_0_1" fill="white">
    <path fill-rule="evenodd" clip-rule="evenodd" d="M307.816 459.022C290.535 476.302 262.517 476.303 245.237 459.022C230.531 444.316 228.34 421.834 238.663 404.811H178.25C153.811 404.811 134 385 134 360.561C134 336.123 153.811 316.311 178.25 316.311H239.059C228.287 299.215 230.346 276.351 245.237 261.46C262.517 244.18 290.535 244.18 307.816 261.46L374.874 328.518C383.625 337.27 387.945 348.776 387.832 360.246C387.942 371.713 383.623 383.215 374.873 391.964L307.816 459.022Z"/>
  </mask>
  <path fill-rule="evenodd" clip-rule="evenodd" d="M307.816 459.022C290.535 476.302 262.517 476.303 245.237 459.022C230.531 444.316 228.34 421.834 238.663 404.811H178.25C153.811 404.811 134 385 134 360.561C134 336.123 153.811 316.311 178.25 316.311H239.059C228.287 299.215 230.346 276.351 245.237 261.46C262.517 244.18 290.535 244.18 307.816 261.46L374.874 328.518C383.625 337.27 387.945 348.776 387.832 360.246C387.942 371.713 383.623 383.215 374.873 391.964L307.816 459.022Z" fill="black"/>
  <path d="M245.237 459.022L258.672 445.587L258.672 445.587L245.237 459.022ZM307.816 459.022L321.251 472.457L321.251 472.457L307.816 459.022ZM238.663 404.811L254.909 414.664L272.407 385.811H238.663V404.811ZM239.059 316.311V335.311H273.489L255.134 306.182L239.059 316.311ZM245.237 261.46L258.672 274.895L258.672 274.895L245.237 261.46ZM307.816 261.46L294.381 274.895L294.381 274.895L307.816 261.46ZM374.874 328.518L361.439 341.953L361.439 341.953L374.874 328.518ZM387.832 360.246L368.833 360.059L368.831 360.244L368.833 360.429L387.832 360.246ZM374.873 391.964L388.308 405.399L388.308 405.399L374.873 391.964ZM231.802 472.457C256.502 497.157 296.55 497.157 321.251 472.457L294.381 445.587C284.52 455.448 268.532 455.448 258.672 445.587L231.802 472.457ZM222.417 394.959C207.662 419.29 210.763 451.419 231.802 472.457L258.672 445.587C250.298 437.213 249.018 424.378 254.909 414.664L222.417 394.959ZM238.663 385.811H178.25V423.811H238.663V385.811ZM178.25 385.811C164.305 385.811 153 374.506 153 360.561H115C115 395.493 143.318 423.811 178.25 423.811V385.811ZM153 360.561C153 346.616 164.305 335.311 178.25 335.311V297.311C143.318 297.311 115 325.629 115 360.561H153ZM178.25 335.311H239.059V297.311H178.25V335.311ZM231.802 248.025C210.5 269.327 207.585 302.001 222.984 326.44L255.134 306.182C248.988 296.429 250.192 283.376 258.672 274.895L231.802 248.025ZM321.251 248.025C296.55 223.325 256.502 223.325 231.802 248.025L258.672 274.895C268.533 265.035 284.52 265.035 294.381 274.895L321.251 248.025ZM388.309 315.083L321.251 248.025L294.381 274.895L361.439 341.953L388.309 315.083ZM406.831 360.433C406.992 344.069 400.815 327.59 388.309 315.083L361.439 341.953C366.435 346.95 368.898 353.482 368.833 360.059L406.831 360.433ZM388.308 405.399C400.812 392.896 406.988 376.422 406.831 360.063L368.833 360.429C368.896 367.004 366.434 373.534 361.438 378.529L388.308 405.399ZM321.251 472.457L388.308 405.399L361.438 378.529L294.381 445.587L321.251 472.457Z" fill="white" mask="url(#path-5-inside-2_0_1)"/>
  <defs>
    <linearGradient id="paint0_linear_0_1" x1="359" y1="718" x2="359" y2="0" gradientUnits="userSpaceOnUse">
      <stop stop-color="#FFC161"/>
      <stop offset="1" stop-color="#F95B5D"/>
    </linearGradient>
  </defs>
</svg>
