<svg width="751" height="828" viewBox="0 0 751 828" fill="none" xmlns="http://www.w3.org/2000/svg">
  <g filter="url(#filter0_d_448_132)">
    <path d="M701.5 359C701.5 548.158 548.157 701.5 359 701.5C169.842 701.5 16.5 548.158 16.5 359C16.5 169.842 169.842 16.5 359 16.5C548.157 16.5 701.5 169.842 701.5 359Z" fill="url(#paint0_linear_448_132)" stroke="white" stroke-width="33"/>
    <path d="M358.5 771L520.88 671.25H196.12L358.5 771Z" fill="white"/>
    <mask id="path-3-inside-1_448_132" fill="white">
      <path fill-rule="evenodd" clip-rule="evenodd" d="M208.633 468.477C221.521 481.364 242.415 481.364 255.302 468.477C268.19 455.59 268.19 434.695 255.302 421.808L228.494 395H341.494C359.719 395 374.494 380.226 374.494 362C374.494 343.775 359.719 329 341.494 329H227.977L255.302 301.675C268.19 288.787 268.19 267.893 255.302 255.006C242.415 242.118 221.52 242.118 208.633 255.006L125.665 337.973C119.111 344.528 115.89 353.155 116.003 361.745C115.892 370.333 119.113 378.956 125.666 385.509L208.633 468.477Z"/>
    </mask>
    <path fill-rule="evenodd" clip-rule="evenodd" d="M208.633 468.477C221.521 481.364 242.415 481.364 255.302 468.477C268.19 455.59 268.19 434.695 255.302 421.808L228.494 395H341.494C359.719 395 374.494 380.226 374.494 362C374.494 343.775 359.719 329 341.494 329H227.977L255.302 301.675C268.19 288.787 268.19 267.893 255.302 255.006C242.415 242.118 221.52 242.118 208.633 255.006L125.665 337.973C119.111 344.528 115.89 353.155 116.003 361.745C115.892 370.333 119.113 378.956 125.666 385.509L208.633 468.477Z" fill="white"/>
    <path d="M255.302 468.477L241.867 455.042L241.867 455.042L255.302 468.477ZM208.633 468.477L222.068 455.042V455.042L208.633 468.477ZM255.302 421.808L268.737 408.373V408.373L255.302 421.808ZM228.494 395L215.059 408.435L182.624 376H228.494V395ZM227.977 329V348H182.107L214.542 315.565L227.977 329ZM255.302 255.006L241.867 268.441H241.867L255.302 255.006ZM208.633 255.006L222.068 268.441L208.633 255.006ZM125.665 337.973L139.101 351.408L139.101 351.408L125.665 337.973ZM116.003 361.745L135.001 361.495L135.004 361.743L135.001 361.991L116.003 361.745ZM125.666 385.509L139.101 372.074L125.666 385.509ZM268.737 481.912C248.43 502.219 215.506 502.219 195.198 481.912L222.068 455.042C227.536 460.509 236.4 460.509 241.867 455.042L268.737 481.912ZM268.737 408.373C289.045 428.68 289.045 461.605 268.737 481.912L241.867 455.042C247.335 449.575 247.335 440.71 241.867 435.243L268.737 408.373ZM241.929 381.565L268.737 408.373L241.867 435.243L215.059 408.435L241.929 381.565ZM228.494 376H341.494V414H228.494V376ZM341.494 376C349.226 376 355.494 369.732 355.494 362H393.494C393.494 390.719 370.213 414 341.494 414V376ZM355.494 362C355.494 354.268 349.226 348 341.494 348V310C370.213 310 393.494 333.281 393.494 362H355.494ZM341.494 348H227.977V310H341.494V348ZM268.737 315.11L241.412 342.435L214.542 315.565L241.867 288.24L268.737 315.11ZM268.737 241.571C289.045 261.878 289.045 294.803 268.737 315.11L241.867 288.24C247.335 282.772 247.335 273.908 241.867 268.441L268.737 241.571ZM195.198 241.571C215.505 221.263 248.43 221.263 268.737 241.571L241.867 268.441C236.4 262.973 227.536 262.973 222.068 268.441L195.198 241.571ZM112.23 324.538L195.198 241.571L222.068 268.441L139.101 351.408L112.23 324.538ZM97.0045 361.995C96.8267 348.491 101.904 334.865 112.23 324.538L139.101 351.408C136.317 354.192 134.953 357.818 135.001 361.495L97.0045 361.995ZM112.231 398.944C101.907 388.621 96.8297 375 97.0045 361.499L135.001 361.991C134.954 365.667 136.318 369.292 139.101 372.074L112.231 398.944ZM195.198 481.912L112.231 398.944L139.101 372.074L222.068 455.042L195.198 481.912Z" fill="white" mask="url(#path-3-inside-1_448_132)"/>
    <path fill-rule="evenodd" clip-rule="evenodd" d="M327.003 203C327.003 195.82 332.823 190 340.003 190H539.003C546.183 190 552.003 195.82 552.003 203V514.5C552.003 521.68 546.183 527.5 539.003 527.5H340.003C332.823 527.5 327.003 521.68 327.003 514.5V468.814C332.396 466.654 337.45 463.39 341.818 459.022L408.876 391.964C417.626 383.215 421.945 371.713 421.835 360.246C421.948 348.776 417.628 337.27 408.876 328.518L341.819 261.46C337.45 257.092 332.396 253.828 327.003 251.669V203ZM531.003 359.5C531.003 376.069 517.571 389.5 501.003 389.5C484.434 389.5 471.003 376.069 471.003 359.5C471.003 342.931 484.434 329.5 501.003 329.5C517.571 329.5 531.003 342.931 531.003 359.5Z" fill="white"/>
  </g>
  <defs>
    <filter id="filter0_d_448_132" x="0" y="0" width="751" height="828" filterUnits="userSpaceOnUse" color-interpolation-filters="sRGB">
      <feFlood flood-opacity="0" result="BackgroundImageFix"/>
      <feColorMatrix in="SourceAlpha" type="matrix" values="0 0 0 0 0 0 0 0 0 0 0 0 0 0 0 0 0 0 127 0" result="hardAlpha"/>
      <feOffset dx="17" dy="41"/>
      <feGaussianBlur stdDeviation="8"/>
      <feComposite in2="hardAlpha" operator="out"/>
      <feColorMatrix type="matrix" values="0 0 0 0 0 0 0 0 0 0 0 0 0 0 0 0 0 0 0.25 0"/>
      <feBlend mode="normal" in2="BackgroundImageFix" result="effect1_dropShadow_448_132"/>
      <feBlend mode="normal" in="SourceGraphic" in2="effect1_dropShadow_448_132" result="shape"/>
    </filter>
    <linearGradient id="paint0_linear_448_132" x1="359" y1="718" x2="359" y2="0" gradientUnits="userSpaceOnUse">
      <stop stop-color="#FFC161"/>
      <stop offset="1" stop-color="#F95B5D"/>
    </linearGradient>
  </defs>
</svg>
