<svg width="718" height="718" viewBox="0 0 718 718" fill="none" xmlns="http://www.w3.org/2000/svg">
  <path d="M707.5 359C707.5 551.471 551.471 707.5 359 707.5C166.529 707.5 10.5 551.471 10.5 359C10.5 166.529 166.529 10.5 359 10.5C551.471 10.5 707.5 166.529 707.5 359Z" fill="url(#paint0_linear_0_1)" stroke="black" stroke-width="21"/>
  <path fill-rule="evenodd" clip-rule="evenodd" d="M486.245 152.137C480.094 145.986 470.122 145.986 463.971 152.137L398.21 217.898C393.755 222.353 392.527 228.812 394.525 234.373C382.048 255.29 381.943 281.521 394.44 302.279L192.442 504.276C186.291 510.427 186.291 520.399 192.442 526.55C198.593 532.701 208.565 532.701 214.716 526.55L416.713 324.552C436.968 336.747 462.436 336.942 483.092 325.351C488.754 327.592 495.454 326.423 500.034 321.843L565.795 256.082C571.946 249.931 571.946 239.959 565.795 233.808C559.644 227.657 549.672 227.657 543.521 233.808L477.76 299.569C475.095 302.234 473.584 305.617 473.229 309.095C459.968 316.307 444.125 316.757 430.749 310.517L459.661 281.605L459.729 281.537L525.49 215.777C531.64 209.626 531.64 199.653 525.49 193.503C519.339 187.352 509.366 187.352 503.216 193.503L473.584 223.134L473.517 223.201L408.476 288.242C402.075 274.523 402.713 258.207 410.467 244.745C414.117 244.487 417.694 242.962 420.484 240.172L486.245 174.411C492.396 168.26 492.396 158.288 486.245 152.137Z" fill="black"/>
  <rect x="373.369" y="371" width="25" height="17" fill="black"/>
  <path fill-rule="evenodd" clip-rule="evenodd" d="M209.674 199.564C206.726 193.666 207.712 186.304 212.63 181.386C218.781 175.235 228.753 175.235 234.904 181.386L264.526 211.008C264.551 211.034 264.577 211.059 264.603 211.085L545.675 492.165C551.825 498.316 551.825 508.289 545.675 514.439C539.524 520.59 529.552 520.59 523.401 514.439L412.037 403.073C407.957 404.058 403.662 404.496 399.276 404.477C387.721 404.427 374.794 401.245 361.432 395.778C334.669 384.83 304.356 363.977 276.447 336.068C248.538 308.158 227.687 277.844 216.738 251.08C211.272 237.718 208.089 224.791 208.04 213.235C208.02 208.522 208.527 203.913 209.674 199.564ZM227.337 218.368C228.111 225.69 230.399 234.293 234.323 243.886C244.104 267.796 263.313 296.063 289.882 322.633C316.451 349.202 344.717 368.411 368.626 378.193C378.219 382.117 386.822 384.405 394.144 385.179L278.467 269.499C278.442 269.473 278.416 269.448 278.39 269.422L227.337 218.368Z" fill="black"/>
  <rect width="43.4105" height="223.264" transform="matrix(0.706935 -0.707278 0.707258 0.706956 211.369 232.703)" fill="black"/>
  <rect width="39.7849" height="148.64" transform="matrix(0.725301 -0.688432 0.688414 0.725318 235.369 266.389)" fill="black"/>
  <ellipse cx="396.187" cy="245.841" rx="26.4474" ry="10.5" transform="rotate(-80.2727 396.187 245.841)" fill="black"/>
  <ellipse cx="406.537" cy="245.441" rx="26.4474" ry="10.5" transform="rotate(-66.5212 406.537 245.441)" fill="black"/>
  <ellipse cx="478.723" cy="312.468" rx="26.4474" ry="10.5" transform="rotate(-37.6482 478.723 312.468)" fill="black"/>
  <ellipse cx="479.78" cy="320.331" rx="26.4474" ry="10.5" transform="rotate(-18.4517 479.78 320.331)" fill="black"/>
  <defs>
    <linearGradient id="paint0_linear_0_1" x1="359" y1="718" x2="359" y2="0" gradientUnits="userSpaceOnUse">
      <stop stop-color="#FFC161"/>
      <stop offset="1" stop-color="#F95B5D"/>
    </linearGradient>
  </defs>
</svg>
